<svg width="21" height="19" viewBox="0 0 21 19" fill="none" xmlns="http://www.w3.org/2000/svg">
<path d="M9.92925 2.3937L10.5 2.9748L11.0707 2.3937C12.0454 1.40137 13.3623 0.8 14.8066 0.8C17.7476 0.8 20.2 3.32026 20.2 6.51566C20.2 7.98432 19.7405 9.14496 19.407 9.8248C19.0517 10.5489 18.6297 11.1485 18.2791 11.5948C17.5802 12.4847 16.7669 13.2654 16.1232 13.8388C15.4495 14.4389 14.7965 14.9569 14.3244 15.3172C14.0858 15.4993 13.8842 15.6482 13.7374 15.7549L13.467 15.9484L11.1878 17.5426C10.7748 17.8315 10.2252 17.8315 9.8122 17.5426L7.53273 15.9482L7.52949 15.9459L7.44371 15.8853C7.44332 15.885 7.44292 15.8847 7.44252 15.8845C7.39792 15.8527 7.33804 15.8097 7.26501 15.7566L7.265 15.7566C7.11798 15.6498 6.9155 15.5003 6.67558 15.3172L6.19021 15.9532L6.67558 15.3172C6.20346 14.9569 5.5505 14.4389 4.87675 13.8388C4.23311 13.2654 3.41975 12.4847 2.72089 11.5948L2.09172 12.0889L2.72089 11.5948C2.37033 11.1485 1.94824 10.5489 1.59301 9.82479C1.2595 9.14494 0.800001 7.9843 0.8 6.51567C0.799998 3.32027 3.25245 0.800003 6.19336 0.8C7.63772 0.799999 8.95461 1.40137 9.92925 2.3937Z" stroke="#D22970" stroke-width="1.6" stroke-linecap="round"/>
</svg>
