<svg width="25" height="25" viewBox="0 0 25 25" fill="none" xmlns="http://www.w3.org/2000/svg">
<path d="M5.73791 13.1161C5.7368 13.1101 5.73579 13.1041 5.73489 13.098L4.46393 5.47229C4.33836 4.71887 3.6865 4.16667 2.92269 4.16667H2.60421C2.31656 4.16667 2.08337 3.93348 2.08337 3.64583C2.08337 3.35819 2.31656 3.125 2.60421 3.125H2.92269C4.16417 3.125 5.22819 4.0003 5.47427 5.20833H22.3959C22.7419 5.20833 22.9917 5.53953 22.8967 5.87225L20.8133 13.1639C20.7495 13.3875 20.5451 13.5417 20.3125 13.5417H6.86486L6.99448 14.3194C7.12005 15.0728 7.77191 15.625 8.53572 15.625H20.3125C20.6002 15.625 20.8334 15.8582 20.8334 16.1458C20.8334 16.4335 20.6002 16.6667 20.3125 16.6667H8.53572C7.2627 16.6667 6.17627 15.7463 5.96699 14.4906L5.73791 13.1161V13.1161ZM5.64959 6.25L6.69125 12.5H19.9197L21.7054 6.25H5.64959ZM8.33337 21.875C7.18278 21.875 6.25004 20.9423 6.25004 19.7917C6.25004 18.6411 7.18278 17.7083 8.33337 17.7083C9.48397 17.7083 10.4167 18.6411 10.4167 19.7917C10.4167 20.9423 9.48397 21.875 8.33337 21.875ZM8.33337 20.8333C8.90867 20.8333 9.37504 20.367 9.37504 19.7917C9.37504 19.2164 8.90867 18.75 8.33337 18.75C7.75808 18.75 7.29171 19.2164 7.29171 19.7917C7.29171 20.367 7.75808 20.8333 8.33337 20.8333ZM17.7084 21.875C16.5578 21.875 15.625 20.9423 15.625 19.7917C15.625 18.6411 16.5578 17.7083 17.7084 17.7083C18.859 17.7083 19.7917 18.6411 19.7917 19.7917C19.7917 20.9423 18.859 21.875 17.7084 21.875ZM17.7084 20.8333C18.2837 20.8333 18.75 20.367 18.75 19.7917C18.75 19.2164 18.2837 18.75 17.7084 18.75C17.1331 18.75 16.6667 19.2164 16.6667 19.7917C16.6667 20.367 17.1331 20.8333 17.7084 20.8333Z" fill="#FFB800" stroke="#FFB800"/>
</svg>
