<svg width="25" height="25" viewBox="0 0 25 25" fill="none" xmlns="http://www.w3.org/2000/svg">
<path d="M5.73786 13.1161C5.73675 13.1101 5.73574 13.1041 5.73484 13.098L4.46389 5.47229C4.33832 4.71887 3.68646 4.16667 2.92265 4.16667H2.60416C2.31651 4.16667 2.08333 3.93348 2.08333 3.64583C2.08333 3.35819 2.31651 3.125 2.60416 3.125H2.92265C4.16412 3.125 5.22815 4.0003 5.47422 5.20833H22.3958C22.7419 5.20833 22.9917 5.53953 22.8966 5.87225L20.8133 13.1639C20.7494 13.3875 20.545 13.5417 20.3125 13.5417H6.86482L6.99444 14.3194C7.12001 15.0728 7.77186 15.625 8.53568 15.625H20.3125C20.6001 15.625 20.8333 15.8582 20.8333 16.1458C20.8333 16.4335 20.6001 16.6667 20.3125 16.6667H8.53568C7.26266 16.6667 6.17623 15.7463 5.96694 14.4906L5.73786 13.1161V13.1161ZM5.64954 6.25L6.69121 12.5H19.9196L21.7053 6.25H5.64954ZM8.33333 21.875C7.18273 21.875 6.24999 20.9423 6.24999 19.7917C6.24999 18.6411 7.18273 17.7083 8.33333 17.7083C9.48392 17.7083 10.4167 18.6411 10.4167 19.7917C10.4167 20.9423 9.48392 21.875 8.33333 21.875ZM8.33333 20.8333C8.90862 20.8333 9.37499 20.367 9.37499 19.7917C9.37499 19.2164 8.90862 18.75 8.33333 18.75C7.75803 18.75 7.29166 19.2164 7.29166 19.7917C7.29166 20.367 7.75803 20.8333 8.33333 20.8333ZM17.7083 21.875C16.5577 21.875 15.625 20.9423 15.625 19.7917C15.625 18.6411 16.5577 17.7083 17.7083 17.7083C18.8589 17.7083 19.7917 18.6411 19.7917 19.7917C19.7917 20.9423 18.8589 21.875 17.7083 21.875ZM17.7083 20.8333C18.2836 20.8333 18.75 20.367 18.75 19.7917C18.75 19.2164 18.2836 18.75 17.7083 18.75C17.133 18.75 16.6667 19.2164 16.6667 19.7917C16.6667 20.367 17.133 20.8333 17.7083 20.8333Z" fill="#D22970" stroke="#D22970" stroke-width="0.2"/>
</svg>
