<svg width="21" height="19" viewBox="0 0 21 19" fill="none" xmlns="http://www.w3.org/2000/svg">
<path d="M9.78656 2.53384L10.5 3.26022L11.2134 2.53384C12.1531 1.57713 13.4196 1 14.8066 1C17.6277 1 20 3.42104 20 6.51566C20 7.94262 19.5535 9.07211 19.2274 9.73672C18.8803 10.4443 18.467 11.0317 18.1218 11.4713C17.4334 12.3479 16.6299 13.1196 15.9902 13.6894C15.3214 14.2852 14.6727 14.7998 14.2031 15.1582C13.9662 15.339 13.7661 15.4868 13.6204 15.5927L13.3515 15.7851L11.0732 17.3787C10.729 17.6195 10.271 17.6195 9.92683 17.3787L7.64817 15.7849L7.64412 15.782L7.55974 15.7224C7.55927 15.7221 7.5588 15.7217 7.55832 15.7214C7.51422 15.69 7.45494 15.6474 7.38259 15.5949L7.38258 15.5948C7.23664 15.4888 7.03543 15.3403 6.79692 15.1582L6.19021 15.9532L6.79692 15.1582C6.32734 14.7998 5.67859 14.2852 5.00978 13.6894C4.37011 13.1196 3.56659 12.3479 2.87818 11.4713C2.53297 11.0317 2.11966 10.4443 1.77257 9.7367C1.44654 9.0721 1 7.94261 1 6.51567C0.999998 3.42104 3.37234 1 6.19336 1C7.58042 0.999999 8.8469 1.57713 9.78656 2.53384Z" stroke="#FFBA00" stroke-width="2" stroke-linecap="round"/>
</svg>
